<svg xmlns="http://www.w3.org/2000/svg" viewBox="0 0 189.74 21.78"><defs><style>.cls-1{fill:#ee2a7b;}</style></defs><title>video-channel</title><g id="Layer_2" data-name="Layer 2"><g id="Layer_1-2" data-name="Layer 1"><path class="cls-1" d="M111.81,20.54c.77-.25.74-.22.44-.75l-4.64-8.09a5.82,5.82,0,0,0,3.25-5.58C110.86,0,105.49,0,103.27,0H97.75c-.53,0-.53,0-.53.53V20.47c0,.56,0,.56.53.56h4.16c.5,0,.5,0,.5-.56V12.82h.8l4.43,8.58c.21.43.24.47.92.25ZM103,4c1.65,0,2.92.09,2.92,2.19,0,2.25-1.21,2.53-3.22,2.53h-.24V4ZM86.55,7.81h5.17c.5,0,.5,0,.5.56v3.06c0,.52,0,.52-.53.52H86.55v4.91H93c.5,0,.5,0,.5.53v3.05c0,.56,0,.56-.5.56H82.18c-.5,0-.5,0-.5-.56V.53c0-.53,0-.53.5-.53h11c.65,0,.71,0,.53.53l-1,3.05c-.14.47-.11.47-.53.47h-5.7ZM73.41,21c-.51,0-.54,0-.54-.56L72.58,9.36c-.65,2-1.51,5-2,6.42-.18.56-.18.56-.59.56h-3c-.65,0-.65,0-.79-.53-.39-1.39-1.21-4.48-1.81-6.45L64.1,20.47c0,.56,0,.56-.62.56H59.79c-.51,0-.51,0-.48-.56L60.26.68c0-.68,0-.68.74-.68h3.63c.68,0,.68,0,1,.9,0,0,2.45,7.59,2.83,8.89L71.57.9c.3-.87.24-.9.89-.9H76c.77,0,.74,0,.77.68l.89,19.79c0,.56,0,.56-.47.56ZM51.55,21c-.57,0-.6,0-.6-.56L50.69,9.36c-.62,2-1.51,5-1.92,6.42-.18.56-.18.56-.65.56h-3c-.62,0-.59,0-.76-.53-.45-1.39-1.19-4.48-1.87-6.45l-.32,11.11c0,.56,0,.56-.59.56H37.9c-.48,0-.48,0-.45-.56L38.37.68c0-.68,0-.68.74-.68h3.66c.65,0,.65,0,.95.9,0,0,2.45,7.59,2.83,8.89L49.65.9C50,0,50,0,50.57,0h3.57c.74,0,.71,0,.74.68l.92,19.79c0,.56,0,.56-.53.56ZM34.47,21c.65,0,.62,0,.41-.65L28.5.28C28.41,0,28.38,0,28.12,0H24c-.38,0-.41,0-.5.28L17.1,20.41c-.21.62-.18.62.24.62h4.49c.56,0,.56,0,.68-.46l1.27-4.79h4.4c.41,1.57,1.33,4.76,1.33,4.76.15.49.12.49.56.49ZM25.84,6,27.11,12H24.52ZM10.28,21c-.56,0-.56,0-.56-.56V12.29H5.14v8.18c0,.56,0,.56-.47.56H.53C0,21,0,21,0,20.47V.53C0,0,0,0,.53,0H4.67c.47,0,.47,0,.47.53V8H9.72V.53c0-.53,0-.53.56-.53h4.13c.5,0,.5,0,.5.53V20.47c0,.56,0,.56-.5.56Z"/><path class="cls-1" d="M130.12,20.68c-.06.27-.15.33-.45.33h-2.1c-.33,0-.36,0-.45-.33L121.9,1.11c-.06-.18-.06-.18-.06-.24s.09-.18.36-.27l1.68-.39.09,0a.33.33,0,0,1,.15,0c.12,0,.18.12.24.36l3.81,15.87c.15.69.21,1,.33,1.69l.12.69c.15-.87.33-1.77.45-2.32L133,.51c.06-.24.12-.33.27-.33a.66.66,0,0,1,.24,0l1.62.39c.24.06.33.12.33.24l0,.27Z"/><path class="cls-1" d="M138.64,2.37c-.36,0-.42-.06-.42-.42V.84c0-.36.06-.42.42-.42h7.77c.36,0,.42.06.42.42V2c0,.36-.06.42-.42.42h-2.67V19.06h2.67c.36,0,.42.06.42.42v1.11c0,.36-.06.42-.42.42h-7.77c-.36,0-.42-.06-.42-.42V19.48c0-.36.06-.42.42-.42h2.64V2.37Z"/><path class="cls-1" d="M153.47,21h-3.4c-.36,0-.42-.06-.42-.42V.84c0-.36.06-.42.42-.42h3.13c2.64,0,4.08.33,5.34,1.2,2.16,1.47,3.33,4.56,3.33,8.73C161.87,17.5,159.08,21,153.47,21Zm3.21-17.86a6.86,6.86,0,0,0-3.33-.6h-1.24V18.88h1.54c2.34,0,3.3-.42,4.26-1.84s1.32-3.45,1.32-6.69C159.23,6.36,158.42,4.08,156.68,3.15Z"/><path class="cls-1" d="M174.41.9,174,2.22a.45.45,0,0,1-.45.33h-6.66V9.3h5.88c.36,0,.42.06.42.42v1.17c0,.36-.06.42-.42.42h-5.88v7.57H174c.36,0,.42.06.42.42v1.29c0,.36-.06.42-.42.42h-9.21c-.39,0-.42,0-.42-.42V.84c0-.36.06-.42.42-.42h9.24c.3,0,.42.06.42.21A.8.8,0,0,1,174.41.9Z"/><path class="cls-1" d="M182.81,21.43c-4.32,0-6.6-3.63-6.6-10.6,0-7.17,2.37-10.83,7-10.83,4.26,0,6.51,3.69,6.51,10.68S187.34,21.43,182.81,21.43Zm3.12-17.68A3,3,0,0,0,183,2,3.34,3.34,0,0,0,179.9,3.9a16.73,16.73,0,0,0-1,6.75,16.65,16.65,0,0,0,1.17,7A3,3,0,0,0,183,19.42a3.26,3.26,0,0,0,3.09-1.9,16.8,16.8,0,0,0,1-6.63C187.07,7.68,186.68,5.25,185.93,3.75Z"/></g></g></svg>